# Wavefront Obj file
# 
# verts: 69 uv-s: 101
mtllib herosword.mtl

g Cube
#pivot 0.000000 0.000000 0.000000

v 17.304119 1002.469604 -2.184036
v 34.448833 260.757080 -2.183958
v 13.333096 157.493164 12.268212
v 16.270489 0.617615 10.459596
v 16.270489 0.617584 -14.827418
v 27.258429 -11.743835 -14.827416
v 27.258429 -11.743835 10.459598
v 16.270489 206.641479 20.074009
v 16.270489 206.641479 -23.068409
v 13.154982 158.420105 -15.434042
v 66.437538 178.558533 -14.827448
v 56.753967 208.628052 10.459561
v 56.753967 208.628052 -14.827453
v 66.437538 178.558533 10.459566
v 107.591377 228.058350 -14.827453
v 118.612053 211.320923 -14.827448
v 118.612053 211.320923 10.459566
v 150.149857 245.092651 10.459565
v 150.149857 245.092651 -14.827450
v 107.591377 228.058350 10.459561
v 146.101685 265.708221 -14.827453
v 146.101685 265.708221 10.459562
v 106.217888 241.793304 10.459562
v 106.217888 241.793304 -14.827452
v 143.354706 282.190125 10.459561
v 143.354706 282.190125 -14.827454
v 11.828363 213.172668 -7.106114
v 11.828363 213.172668 3.945937
v -17.304119 1002.469604 -2.184036
v 0.000000 261.418121 -7.882693
v 0.000000 260.757080 3.478464
v 0.000000 1019.772522 -2.184053
v -34.448833 260.757080 -2.183958
v 0.000000 206.641479 20.073997
v 0.000000 206.641479 -23.068424
v 0.000000 153.386871 -22.397823
v -13.333096 157.493164 12.268212
v 0.000000 153.982910 19.898720
v -16.270489 0.617615 10.459596
v 0.000000 0.617615 18.090103
v 0.000000 0.617584 -22.457951
v -16.270489 0.617584 -14.827418
v -27.258429 -11.743835 -14.827416
v 0.000000 -11.743835 18.090103
v 0.000000 -11.743835 -22.457947
v -27.258429 -11.743835 10.459598
v -16.270489 206.641479 20.074009
v -16.270489 206.641479 -23.068409
v -13.154982 158.420105 -15.434042
v -66.437538 178.558533 -14.827448
v -56.753967 208.628052 10.459561
v -56.753967 208.628052 -14.827453
v -66.437538 178.558533 10.459566
v -107.591377 228.058350 -14.827453
v -118.612053 211.320923 -14.827448
v -118.612053 211.320923 10.459566
v -150.149857 245.092651 10.459565
v -150.149857 245.092651 -14.827450
v -107.591377 228.058350 10.459561
v -146.101685 265.708221 -14.827453
v -146.101685 265.708221 10.459562
v -106.217888 241.793304 10.459562
v -106.217888 241.793304 -14.827452
v -143.354706 282.190125 10.459561
v -143.354706 282.190125 -14.827454
v 0.000000 213.172668 3.945933
v -11.828363 213.172668 -7.106114
v -11.828363 213.172668 3.945937
v 0.000000 213.172668 -7.106119
# 69 positions

vt 0.354626 0.026409
vt 0.354791 0.563535
vt 0.329465 0.564569
vt 0.342185 0.013731
vt 0.679225 0.289847
vt 0.656402 0.983864
vt 0.640058 0.999910
vt 0.646553 0.289518
vt 0.362552 0.598929
vt 0.370409 0.614163
vt 0.354428 0.638867
vt 0.348088 0.617501
vt 0.646784 0.244981
vt 0.646869 0.228697
vt 0.662096 0.228776
vt 0.657854 0.245039
vt 0.333365 0.638551
vt 0.329276 0.616059
vt 0.645098 0.179445
vt 0.659589 0.182187
vt 0.353177 0.701739
vt 0.333326 0.702341
vt 0.640488 0.035972
vt 0.657295 0.035348
vt 0.345787 0.986937
vt 0.325029 0.989137
vt 0.377325 0.726327
vt 0.374431 0.983634
vt 0.640058 0.024411
vt 0.658751 0.024715
vt 0.681442 0.002795
vt 0.677509 0.026218
vt 0.663152 0.021812
vt 0.665330 0.000090
vt 0.404351 0.632111
vt 0.415520 0.667678
vt 0.428187 0.690667
vt 0.403611 0.604903
vt 0.709423 0.201638
vt 0.701064 0.229997
vt 0.467537 0.622824
vt 0.472771 0.641561
vt 0.460203 0.594762
vt 0.484728 0.662926
vt 0.759003 0.231073
vt 0.749082 0.246990
vt 0.552335 0.603451
vt 0.555448 0.613470
vt 0.572482 0.603900
vt 0.565480 0.623218
vt 0.789298 0.261935
vt 0.785992 0.281318
vt 0.481142 0.600454
vt 0.556396 0.587763
vt 0.475254 0.580707
vt 0.783806 0.296802
vt 0.748117 0.259873
vt 0.572504 0.562728
vt 0.354626 0.026409
vt 0.354791 0.563535
vt 0.679225 0.289847
vt 0.656402 0.983864
vt 0.362552 0.598929
vt 0.348088 0.617501
vt 0.354428 0.638867
vt 0.370409 0.614163
vt 0.657854 0.245039
vt 0.662096 0.228776
vt 0.659589 0.182187
vt 0.353177 0.701739
vt 0.657295 0.035348
vt 0.345787 0.986937
vt 0.377325 0.726327
vt 0.374431 0.983634
vt 0.658751 0.024715
vt 0.663152 0.021812
vt 0.677509 0.026218
vt 0.415520 0.667678
vt 0.404351 0.632111
vt 0.428187 0.690667
vt 0.403611 0.604903
vt 0.701064 0.229997
vt 0.709423 0.201638
vt 0.472771 0.641561
vt 0.467537 0.622824
vt 0.460203 0.594762
vt 0.484728 0.662926
vt 0.749082 0.246990
vt 0.759003 0.231073
vt 0.555448 0.613470
vt 0.552335 0.603451
vt 0.565480 0.623218
vt 0.572482 0.603900
vt 0.785992 0.281318
vt 0.789298 0.261935
vt 0.556396 0.587763
vt 0.481142 0.600454
vt 0.475254 0.580707
vt 0.748117 0.259873
vt 0.783806 0.296802
vt 0.572504 0.562728
# 101 texture coordinates

vn 0.111182 0.005046 -0.993787
vn 0.111182 0.005046 -0.993787
vn 0.111182 0.005046 -0.993787
vn 0.111182 0.005046 -0.993787
vn 0.110417 0.005012 0.993873
vn 0.110417 0.005012 0.993873
vn 0.110417 0.005012 0.993873
vn 0.110417 0.005012 0.993873
vn 0.826873 0.562389 0.000000
vn 0.826873 0.562389 0.000000
vn 0.826873 0.562389 0.000000
vn 0.826873 0.562389 0.000000
vn 0.000000 0.926884 0.375349
vn 0.000000 0.926884 0.375349
vn -0.000000 0.926884 0.375349
vn -0.000000 0.926884 0.375349
vn 0.000000 0.925523 -0.378690
vn 0.000000 0.925523 -0.378690
vn 0.000000 0.925524 -0.378690
vn 0.000000 0.925524 -0.378690
vn 0.257945 -0.082904 0.962596
vn 0.257945 -0.082904 0.962596
vn 0.257945 -0.082904 0.962596
vn 0.257945 -0.082904 0.962596
vn 0.243427 -0.086537 -0.966051
vn 0.243427 -0.086537 -0.966051
vn 0.243427 -0.086537 -0.966051
vn 0.243427 -0.086537 -0.966051
vn 0.458765 -0.006016 0.888537
vn 0.458765 -0.006016 0.888537
vn 0.458765 -0.006016 0.888537
vn 0.458765 -0.006016 0.888537
vn 0.443930 0.002877 -0.896057
vn 0.443930 0.002877 -0.896057
vn 0.443930 0.002877 -0.896057
vn 0.443930 0.002877 -0.896057
vn 0.999810 0.019243 -0.003024
vn 0.999810 0.019243 -0.003024
vn 0.999810 0.019243 -0.003024
vn 0.999810 0.019243 -0.003024
vn 0.327331 0.145480 0.933644
vn 0.327331 0.145480 0.933644
vn 0.327331 0.145480 0.933644
vn 0.327331 0.145480 0.933644
vn 0.327332 0.145481 -0.933643
vn 0.327332 0.145481 -0.933643
vn 0.327332 0.145481 -0.933643
vn 0.327332 0.145481 -0.933643
vn 0.747409 0.664364 -0.000000
vn 0.747409 0.664364 -0.000000
vn 0.747409 0.664364 -0.000000
vn 0.747409 0.664364 -0.000000
vn 0.113901 -0.086951 -0.989680
vn 0.113901 -0.086951 -0.989680
vn 0.113901 -0.086951 -0.989680
vn 0.113901 -0.086951 -0.989680
vn 0.360932 -0.932427 -0.017524
vn 0.360932 -0.932427 -0.017524
vn 0.360932 -0.932427 -0.017524
vn 0.360932 -0.932427 -0.017524
vn -0.049012 0.998798 0.000000
vn -0.049012 0.998798 0.000000
vn -0.049012 0.998798 0.000000
vn -0.049012 0.998798 0.000000
vn 0.141357 -0.085147 0.986290
vn 0.141357 -0.085147 0.986290
vn 0.141357 -0.085147 0.986290
vn 0.141357 -0.085147 0.986290
vn 0.000000 -0.000000 -1.000000
vn 0.000000 -0.000000 -1.000000
vn 0.000000 -0.000000 -1.000000
vn 0.000000 -0.000000 -1.000000
vn -0.357017 0.934098 0.000000
vn -0.357017 0.934098 0.000000
vn -0.357017 0.934098 0.000000
vn -0.357017 0.934098 0.000000
vn 0.531787 -0.846878 0.000000
vn 0.531787 -0.846878 0.000000
vn 0.531787 -0.846878 0.000000
vn 0.531787 -0.846878 0.000000
vn -0.000000 0.000000 1.000000
vn -0.000000 0.000000 1.000000
vn -0.000000 0.000000 1.000000
vn -0.000000 0.000000 1.000000
vn 0.000000 -0.000000 -1.000000
vn 0.000000 -0.000000 -1.000000
vn 0.981261 0.192685 0.000000
vn 0.981261 0.192685 0.000000
vn 0.981261 0.192685 0.000000
vn 0.981261 0.192685 0.000000
vn 0.730866 -0.682521 0.000000
vn 0.730866 -0.682521 0.000000
vn 0.730866 -0.682521 0.000000
vn 0.730866 -0.682521 0.000000
vn -0.000000 0.000000 1.000000
vn -0.000000 0.000000 1.000000
vn -0.000000 -0.000000 -1.000000
vn -0.000000 -0.000000 -1.000000
vn -0.995037 -0.099503 0.000000
vn -0.995037 -0.099503 0.000000
vn -0.995037 -0.099503 0.000000
vn -0.995037 -0.099503 0.000000
vn 0.000000 0.000000 1.000000
vn 0.000000 0.000000 1.000000
vn -0.736188 0.676778 0.000000
vn -0.736188 0.676778 0.000000
vn -0.736188 0.676778 0.000000
vn -0.736188 0.676778 0.000000
vn 0.986394 0.164399 0.000000
vn 0.986394 0.164399 0.000000
vn 0.986394 0.164399 0.000000
vn 0.986394 0.164399 0.000000
vn 0.122406 0.014037 -0.992381
vn 0.122406 0.014037 -0.992381
vn 0.122406 0.014037 -0.992381
vn 0.122406 0.014037 -0.992381
vn 0.121356 0.039910 0.991806
vn 0.121356 0.039910 0.991806
vn 0.121356 0.039910 0.991806
vn 0.121356 0.039910 0.991806
vn 0.903146 -0.429334 0.000000
vn 0.903146 -0.429334 0.000000
vn 0.903146 -0.429334 0.000000
vn 0.000000 -1.000000 0.000000
vn 0.000000 -1.000000 0.000000
vn 0.000000 -1.000000 0.000000
vn 0.000000 -1.000000 0.000000
vn -0.111182 0.005046 -0.993787
vn -0.111182 0.005046 -0.993787
vn -0.111182 0.005046 -0.993787
vn -0.111182 0.005046 -0.993787
vn -0.110417 0.005012 0.993873
vn -0.110417 0.005012 0.993873
vn -0.110417 0.005012 0.993873
vn -0.110417 0.005012 0.993873
vn -0.826873 0.562389 0.000000
vn -0.826873 0.562389 0.000000
vn -0.826873 0.562389 0.000000
vn -0.826873 0.562389 0.000000
vn 0.000000 0.926884 0.375349
vn 0.000000 0.926884 0.375349
vn -0.000000 0.925524 -0.378690
vn -0.000000 0.925524 -0.378690
vn -0.257945 -0.082904 0.962596
vn -0.257945 -0.082904 0.962596
vn -0.257945 -0.082904 0.962596
vn -0.257945 -0.082904 0.962596
vn -0.243427 -0.086537 -0.966051
vn -0.243427 -0.086537 -0.966051
vn -0.243427 -0.086537 -0.966051
vn -0.243427 -0.086537 -0.966051
vn -0.458765 -0.006016 0.888537
vn -0.458765 -0.006016 0.888537
vn -0.458765 -0.006016 0.888537
vn -0.458765 -0.006016 0.888537
vn -0.443930 0.002877 -0.896057
vn -0.443930 0.002877 -0.896057
vn -0.443930 0.002877 -0.896057
vn -0.443930 0.002877 -0.896057
vn -0.999810 0.019243 -0.003024
vn -0.999810 0.019243 -0.003024
vn -0.999810 0.019243 -0.003024
vn -0.999810 0.019243 -0.003024
vn -0.327331 0.145480 0.933644
vn -0.327331 0.145480 0.933644
vn -0.327331 0.145480 0.933644
vn -0.327331 0.145480 0.933644
vn -0.327332 0.145481 -0.933643
vn -0.327332 0.145481 -0.933643
vn -0.327332 0.145481 -0.933643
vn -0.327332 0.145481 -0.933643
vn -0.747409 0.664364 -0.000000
vn -0.747409 0.664364 -0.000000
vn -0.747409 0.664364 -0.000000
vn -0.747409 0.664364 -0.000000
vn -0.113901 -0.086951 -0.989680
vn -0.113901 -0.086951 -0.989680
vn -0.113901 -0.086951 -0.989680
vn -0.113901 -0.086951 -0.989680
vn -0.360932 -0.932428 -0.017524
vn -0.360932 -0.932428 -0.017524
vn -0.360932 -0.932428 -0.017524
vn -0.360932 -0.932428 -0.017524
vn 0.049012 0.998798 0.000000
vn 0.049012 0.998798 0.000000
vn 0.049012 0.998798 0.000000
vn 0.049012 0.998798 0.000000
vn -0.141357 -0.085147 0.986290
vn -0.141357 -0.085147 0.986290
vn -0.141357 -0.085147 0.986290
vn -0.141357 -0.085147 0.986290
vn -0.000000 -0.000000 -1.000000
vn -0.000000 -0.000000 -1.000000
vn -0.000000 -0.000000 -1.000000
vn -0.000000 -0.000000 -1.000000
vn 0.357017 0.934098 0.000000
vn 0.357017 0.934098 0.000000
vn 0.357017 0.934098 0.000000
vn 0.357017 0.934098 0.000000
vn -0.531787 -0.846878 0.000000
vn -0.531787 -0.846878 0.000000
vn -0.531787 -0.846878 0.000000
vn -0.531787 -0.846878 0.000000
vn 0.000000 0.000000 1.000000
vn 0.000000 0.000000 1.000000
vn 0.000000 0.000000 1.000000
vn 0.000000 0.000000 1.000000
vn -0.000000 -0.000000 -1.000000
vn -0.000000 -0.000000 -1.000000
vn -0.981261 0.192685 0.000000
vn -0.981261 0.192685 0.000000
vn -0.981261 0.192685 0.000000
vn -0.981261 0.192685 0.000000
vn -0.730866 -0.682521 0.000000
vn -0.730866 -0.682521 0.000000
vn -0.730866 -0.682521 0.000000
vn -0.730866 -0.682521 0.000000
vn 0.000000 0.000000 1.000000
vn 0.000000 0.000000 1.000000
vn 0.000000 -0.000000 -1.000000
vn 0.000000 -0.000000 -1.000000
vn 0.995037 -0.099503 0.000000
vn 0.995037 -0.099503 0.000000
vn 0.995037 -0.099503 0.000000
vn 0.995037 -0.099503 0.000000
vn 0.000000 0.000000 1.000000
vn 0.000000 0.000000 1.000000
vn 0.736188 0.676778 0.000000
vn 0.736188 0.676778 0.000000
vn 0.736188 0.676778 0.000000
vn 0.736188 0.676778 0.000000
vn -0.986394 0.164399 0.000000
vn -0.986394 0.164399 0.000000
vn -0.986394 0.164399 0.000000
vn -0.986394 0.164399 0.000000
vn -0.122406 0.014037 -0.992381
vn -0.122406 0.014037 -0.992381
vn -0.122406 0.014037 -0.992381
vn -0.122406 0.014037 -0.992381
vn -0.121356 0.039910 0.991806
vn -0.121356 0.039910 0.991806
vn -0.121356 0.039910 0.991806
vn -0.121356 0.039910 0.991806
vn -0.903146 -0.429334 0.000000
vn -0.903146 -0.429334 0.000000
vn -0.903146 -0.429334 0.000000
vn 0.000000 -1.000000 0.000000
vn 0.000000 -1.000000 0.000000
# 248 normals

usemtl Material
s 1
f 1/1/1 2/2/2 30/3/3 32/4/4
s 2
f 2/5/5 1/6/6 32/7/7 31/8/8
s 3
f 28/9/9 8/10/10 9/11/11 27/12/12
s 4
f 66/13/13 34/14/14 8/15/15 28/16/16
f 66/13/13 68/67/140 47/68/141 34/14/14
s 5
f 27/12/17 9/11/18 35/17/19 69/18/20
f 67/64/142 69/18/20 35/17/19 48/65/143
s 6
f 8/15/21 34/14/22 38/19/23 3/20/24
s 7
f 9/11/25 10/21/26 36/22/27 35/17/28
s 8
f 38/19/29 40/23/30 4/24/31 3/20/32
s 9
f 36/22/33 10/21/34 5/25/35 41/26/36
s 10
f 3/27/37 4/28/38 5/25/39 10/21/40
s 11
f 4/24/41 40/23/42 44/29/43 7/30/44
s 12
f 41/31/45 5/32/46 6/33/47 45/34/48
s 13
f 4/24/49 7/30/50 6/33/51 5/32/52
s 14
f 10/21/53 9/11/54 13/35/55 11/36/56
s 15
f 3/27/57 10/21/58 11/36/59 14/37/60
s 16
f 9/11/61 8/10/62 12/38/63 13/35/64
s 17
f 8/15/65 3/20/66 14/39/67 12/40/68
s 18
f 11/36/69 13/35/70 15/41/71 16/42/72
f 16/42/72 15/41/71 21/47/85 19/48/86
f 21/47/85 15/41/71 24/53/97 26/54/98
s 19
f 13/35/73 12/38/74 20/43/75 15/41/76
s 20
f 11/36/77 16/42/78 17/44/79 14/37/80
s 21
f 12/40/81 14/39/82 17/45/83 20/46/84
f 20/46/84 17/45/83 18/51/95 22/52/96
f 20/46/84 22/52/96 25/56/103 23/57/104
s 22
f 21/47/87 22/49/88 18/50/89 19/48/90
s 23
f 16/42/91 19/48/92 18/50/93 17/44/94
s 24
f 20/43/99 23/55/100 24/53/101 15/41/102
s 25
f 24/53/105 23/55/106 25/58/107 26/54/108
s 26
f 22/49/109 21/47/110 26/54/111 25/58/112
s 27
f 2/2/113 27/12/114 69/18/115 30/3/116
s 28
f 66/13/117 28/16/118 2/5/119 31/8/120
s 29
f 2/2/121 28/9/122 27/12/123
s 30
f 44/29/124 45/34/125 6/33/126 7/30/127
f 44/29/124 46/75/247 43/76/248 45/34/125
s 31
f 29/59/128 32/4/129 30/3/130 33/60/131
s 32
f 33/61/132 31/8/133 32/7/134 29/62/135
s 33
f 68/63/136 67/64/137 48/65/138 47/66/139
s 34
f 47/68/144 37/69/145 38/19/146 34/14/147
s 35
f 48/65/148 35/17/149 36/22/150 49/70/151
s 36
f 38/19/152 37/69/153 39/71/154 40/23/155
s 37
f 36/22/156 41/26/157 42/72/158 49/70/159
s 38
f 37/73/160 49/70/161 42/72/162 39/74/163
s 39
f 39/71/164 46/75/165 44/29/166 40/23/167
s 40
f 41/31/168 45/34/169 43/76/170 42/77/171
s 41
f 39/71/172 42/77/173 43/76/174 46/75/175
s 42
f 49/70/176 50/78/177 52/79/178 48/65/179
s 43
f 37/73/180 53/80/181 50/78/182 49/70/183
s 44
f 48/65/184 52/79/185 51/81/186 47/66/187
s 45
f 47/68/188 51/82/189 53/83/190 37/69/191
s 46
f 50/78/192 55/84/193 54/85/194 52/79/195
f 55/84/193 58/90/208 60/91/209 54/85/194
f 60/91/209 65/96/220 63/97/221 54/85/194
s 47
f 52/79/196 54/85/197 59/86/198 51/81/199
s 48
f 50/78/200 53/80/201 56/87/202 55/84/203
s 49
f 51/82/204 59/88/205 56/89/206 53/83/207
f 59/88/205 61/94/218 57/95/219 56/89/206
f 59/88/205 62/99/226 64/100/227 61/94/218
s 50
f 60/91/210 58/90/211 57/92/212 61/93/213
s 51
f 55/84/214 56/87/215 57/92/216 58/90/217
s 52
f 59/86/222 54/85/223 63/97/224 62/98/225
s 53
f 63/97/228 65/96/229 64/101/230 62/98/231
s 54
f 61/93/232 64/101/233 65/96/234 60/91/235
s 55
f 33/60/236 30/3/237 69/18/238 67/64/239
s 56
f 66/13/240 31/8/241 33/61/242 68/67/243
s 57
f 33/60/244 67/64/245 68/63/246

# 68 faces
